# xmcd
#
# Track frame offsets:
#	157
#	13665
#	33117
#	53450
#	65422
#	83842
#	106417
#	128850
#	142132
#	149440
#	164685
#	176207
#	203345
#	216797
#	243667
#	263235
#	284692
#	294542
#
# Disc length: 4245 seconds
#
# Revision: 0
# Processed by: cddbd v1.4PL0 Copyright (c) Steve Scherf et al.
# Submitted via: audiograbber 1.81.01
#
DISCID=17109312
DTITLE=Roland - An Anthology - CD 1
DYEAR=1994
DGENRE=Blues
TTITLE0=Man Needs A Plan
TTITLE1=Keep From Keeping On
TTITLE2=Eyesight To The Blind
TTITLE3=Buddy Is Holly I´m Going
TTITLE4=Lewis Carrol Photogrphic
TTITLE5=Chain Gang
TTITLE6=17 Years In A Phonebooth
TTITLE7=She Lies When She Smiles
TTITLE8=Kathy´s Tune
TTITLE9=Fish On The Hook
TTITLE10=Wild Emma´s Dance
TTITLE11=Fine Lady
TTITLE12=Galactic Glides
TTITLE13=Petrol Han
TTITLE14=The Love You Save
TTITLE15=A Tune For You
TTITLE16=Love´s Made A Fool Of You
TTITLE17=Suzanne Better Hurry
EXTD=
EXTT0=
EXTT1=
EXTT2=
EXTT3=
EXTT4=
EXTT5=
EXTT6=
EXTT7=
EXTT8=
EXTT9=
EXTT10=
EXTT11=
EXTT12=
EXTT13=
EXTT14=
EXTT15=
EXTT16=
EXTT17=
PLAYORDER=
